# xmcd
#
# Track frame offsets:
#	150
#	18411
#	44391
#	62311
#	85797
#	119428
#	129249
#	153587
#	174410
#	208796
#	219949
#
# Disc length: 3193 seconds
#
# Revision: 0
# Processed by: cddbd v1.5.2PL0 Copyright (c) Steve Scherf et al.
# Submitted via: EasyCDDAExtractor 10.2.0.1
#
DISCID=8b0c770b
DTITLE=Mark Knopfler and Emmylou Harris - Live at AHOY in Rotterdam [CD2]
DYEAR=2006
DGENRE=Country
TTITLE0=Belle Star
TTITLE1=This Is Us
TTITLE2=Boulder To Birmingham
TTITLE3=All The Roadrunning
TTITLE4=Speedway At Nazareth
TTITLE5=Applause
TTITLE6=If This Is Goodbye
TTITLE7=So Far Away
TTITLE8=Our Shangri La
TTITLE9=Applause
TTITLE10=Why Worry Now
EXTD=
EXTT0=
EXTT1=
EXTT2=
EXTT3=
EXTT4=
EXTT5=
EXTT6=
EXTT7=
EXTT8=
EXTT9=
EXTT10=
PLAYORDER=
